<svg width="171" height="171" viewBox="0 0 171 171" fill="none" xmlns="http://www.w3.org/2000/svg">
<g clip-path="url(#clip0_0_1)">
<mask id="mask0_0_1" style="mask-type:luminance" maskUnits="userSpaceOnUse" x="0" y="0" width="171" height="171">
<path d="M171 0H0V171H171V0Z" fill="white"/>
</mask>
<g mask="url(#mask0_0_1)">
<path d="M76 50.6995C83.6248 -22.1726 179.472 12.653 152.098 78" stroke="#393939" stroke-width="6" stroke-linecap="round"/>
<path d="M127.072 153.932C123.148 123.833 131.523 110.321 150.742 80.0643" stroke="#393939" stroke-width="6" stroke-linecap="round"/>
<path d="M66.0767 41.5331C5.30638 8.30083 -42.9744 134.174 119 169" stroke="#393939" stroke-width="6" stroke-linecap="round"/>
<path d="M143.666 90.2017C150.236 78.5436 153.948 72.7366 154.28 67.3927" stroke="#393939" stroke-width="4"/>
<path d="M142.157 94.5203C151.515 82.1806 153.883 78.038 155.796 67.8997" stroke="#393939" stroke-width="4"/>
<path d="M42.072 102.367C46.8175 102.367 50.6645 98.5087 50.6645 93.7499C50.6645 88.9911 46.8175 85.1333 42.072 85.1333C37.3265 85.1333 33.4795 88.9911 33.4795 93.7499C33.4795 98.5087 37.3265 102.367 42.072 102.367Z" fill="#2E7976"/>
<path d="M65.3223 85.1329C70.0678 85.1329 73.9148 81.2751 73.9148 76.5163C73.9148 71.7574 70.0678 67.8997 65.3223 67.8997C60.5768 67.8997 56.7298 71.7574 56.7298 76.5163C56.7298 81.2751 60.5768 85.1329 65.3223 85.1329Z" fill="#2E7976"/>
<path d="M90.5941 69.927C95.3396 69.927 99.1866 66.0692 99.1866 61.3104C99.1866 56.5516 95.3396 52.6938 90.5941 52.6938C85.8486 52.6938 82.0016 56.5516 82.0016 61.3104C82.0016 66.0692 85.8486 69.927 90.5941 69.927Z" fill="#2E7976"/>
<path d="M114.856 53.7075C119.601 53.7075 123.448 49.8497 123.448 45.0909C123.448 40.3321 119.601 36.4743 114.856 36.4743C110.11 36.4743 106.263 40.3321 106.263 45.0909C106.263 49.8497 110.11 53.7075 114.856 53.7075Z" fill="#2E7976"/>
<path d="M73.9147 87.1604H56.7298V102.366H73.9147V87.1604Z" fill="#2E7976"/>
<path d="M99.1866 72.9682H82.0017V102.366H99.1866V72.9682Z" fill="#2E7976"/>
<path d="M123.448 56.7487H106.263V102.366H123.448V56.7487Z" fill="#2E7976"/>
</g>
</g>
<defs>
<clipPath id="clip0_0_1">
<rect width="171" height="171" fill="white"/>
</clipPath>
</defs>
</svg>
